HIERARCHY
ROOT Hips
{
  OFFSET 5.80788e-005 67.184 3.4734
  CHANNELS 6 Xposition Yposition Zposition Zrotation Xrotation Yrotation
  JOINT Chest
  {
    OFFSET 0 8.7983 -4.7612
    CHANNELS 6 Xposition Yposition Zposition Zrotation Xrotation Yrotation
    JOINT Chest2
    {
      OFFSET 0 8.0291 0.4195
      CHANNELS 6 Xposition Yposition Zposition Zrotation Xrotation Yrotation
      JOINT Chest3
      {
        OFFSET 0 9.9351 -2.2114
        CHANNELS 6 Xposition Yposition Zposition Zrotation Xrotation Yrotation
        JOINT Neck
        {
          OFFSET 0 22.3885 -0.4656
          CHANNELS 6 Xposition Yposition Zposition Zrotation Xrotation Yrotation
          JOINT Head
          {
            OFFSET -0.0001 12.643 3.4389
            CHANNELS 6 Xposition Yposition Zposition Zrotation Xrotation Yrotation
            End Site
            {
              OFFSET 0.0001 17.6655 0.5274
            }
          }
        }
        JOINT LeftCollar
        {
          OFFSET 2.2603 21.606 7.4023
          CHANNELS 6 Xposition Yposition Zposition Zrotation Xrotation Yrotation
          JOINT LeftShoulder
          {
            OFFSET 13.5163 -1.1332 -5.0146
            CHANNELS 6 Xposition Yposition Zposition Zrotation Xrotation Yrotation
            JOINT LeftElbow
            {
              OFFSET -0.0995 -28.05 -0.2431
              CHANNELS 6 Xposition Yposition Zposition Zrotation Xrotation Yrotation
              JOINT LeftWrist
              {
                OFFSET 0.0679 -23.3996 -0.1402
                CHANNELS 6 Xposition Yposition Zposition Zrotation Xrotation Yrotation
                JOINT LeftFinger1
                {
                  OFFSET 0.7932 -9.069 2.5189
                  CHANNELS 6 Xposition Yposition Zposition Zrotation Xrotation Yrotation
                  JOINT LeftFinger11
                  {
                    OFFSET -0.8272 -3.3923 0.5977
                    CHANNELS 6 Xposition Yposition Zposition Zrotation Xrotation Yrotation
                    JOINT LeftFinger12
                    {
                      OFFSET -0.5649 -2.3158 0.4082
                      CHANNELS 6 Xposition Yposition Zposition Zrotation Xrotation Yrotation
                      End Site
                      {
                        OFFSET -0.4919 -1.6479 0.2673
                      }
                    }
                  }
                }
                JOINT LeftFinger2
                {
                  OFFSET 0.9159 -9.2044 0.2193
                  CHANNELS 6 Xposition Yposition Zposition Zrotation Xrotation Yrotation
                  JOINT LeftFinger21
                  {
                    OFFSET 0.0117 -4.1944 -0.0248
                    CHANNELS 6 Xposition Yposition Zposition Zrotation Xrotation Yrotation
                    JOINT LeftFinger22
                    {
                      OFFSET 0.0071 -2.3249 -0.0142
                      CHANNELS 6 Xposition Yposition Zposition Zrotation Xrotation Yrotation
                      End Site
                      {
                        OFFSET -0.1475 -2.0882 0.0028
                      }
                    }
                  }
                }
                JOINT LeftFinger3
                {
                  OFFSET 0.6113 -8.7231 -2.0637
                  CHANNELS 6 Xposition Yposition Zposition Zrotation Xrotation Yrotation
                  JOINT LeftFinger31
                  {
                    OFFSET -0.1927 -3.8059 -0.2383
                    CHANNELS 6 Xposition Yposition Zposition Zrotation Xrotation Yrotation
                    JOINT LeftFinger32
                    {
                      OFFSET -0.1091 -2.1688 -0.1362
                      CHANNELS 6 Xposition Yposition Zposition Zrotation Xrotation Yrotation
                      End Site
                      {
                        OFFSET -0.2358 -1.9176 -0.0906
                      }
                    }
                  }
                }
                JOINT LeftFinger4
                {
                  OFFSET -0.6151 -8.0947 -3.5641
                  CHANNELS 6 Xposition Yposition Zposition Zrotation Xrotation Yrotation
                  JOINT LeftFinger41
                  {
                    OFFSET -0.4882 -2.341 -0.6462
                    CHANNELS 6 Xposition Yposition Zposition Zrotation Xrotation Yrotation
                    JOINT LeftFinger42
                    {
                      OFFSET -0.3575 -1.7167 -0.4742
                      CHANNELS 6 Xposition Yposition Zposition Zrotation Xrotation Yrotation
                      End Site
                      {
                        OFFSET -0.4187 -1.5237 -0.3496
                      }
                    }
                  }
                }
                JOINT LeftFinger0
                {
                  OFFSET -1.42 -1.8761 1.4223
                  CHANNELS 6 Xposition Yposition Zposition Zrotation Xrotation Yrotation
                  JOINT LeftFinger01
                  {
                    OFFSET -1.1471 -3.4929 2.6334
                    CHANNELS 6 Xposition Yposition Zposition Zrotation Xrotation Yrotation
                    JOINT LeftFinger02
                    {
                      OFFSET -0.823 -2.3 1.6571
                      CHANNELS 6 Xposition Yposition Zposition Zrotation Xrotation Yrotation
                      End Site
                      {
                        OFFSET -0.5822 -1.6914 1.1582
                      }
                    }
                  }
                }
              }
            }
          }
        }
        JOINT RightCollar
        {
          OFFSET -2.2603 21.606 7.4023
          CHANNELS 6 Xposition Yposition Zposition Zrotation Xrotation Yrotation
          JOINT RightShoulder
          {
            OFFSET -13.5187 -1.1334 -5.0155
            CHANNELS 6 Xposition Yposition Zposition Zrotation Xrotation Yrotation
            JOINT RightElbow
            {
              OFFSET 0.0994 -28.0499 -0.2431
              CHANNELS 6 Xposition Yposition Zposition Zrotation Xrotation Yrotation
              JOINT RightWrist
              {
                OFFSET -0.0679 -23.3996 -0.1402
                CHANNELS 6 Xposition Yposition Zposition Zrotation Xrotation Yrotation
                JOINT RightFinger1
                {
                  OFFSET -0.7932 -9.0691 2.5189
                  CHANNELS 6 Xposition Yposition Zposition Zrotation Xrotation Yrotation
                  JOINT RightFinger11
                  {
                    OFFSET 0.8272 -3.3923 0.5977
                    CHANNELS 6 Xposition Yposition Zposition Zrotation Xrotation Yrotation
                    JOINT RightFinger12
                    {
                      OFFSET 0.565 -2.3158 0.4082
                      CHANNELS 6 Xposition Yposition Zposition Zrotation Xrotation Yrotation
                      End Site
                      {
                        OFFSET 0.4919 -1.6479 0.2673
                      }
                    }
                  }
                }
                JOINT RightFinger2
                {
                  OFFSET -0.916 -9.2044 0.2193
                  CHANNELS 6 Xposition Yposition Zposition Zrotation Xrotation Yrotation
                  JOINT RightFinger21
                  {
                    OFFSET -0.0117 -4.1944 -0.0248
                    CHANNELS 6 Xposition Yposition Zposition Zrotation Xrotation Yrotation
                    JOINT RightFinger22
                    {
                      OFFSET -0.0071 -2.3249 -0.0142
                      CHANNELS 6 Xposition Yposition Zposition Zrotation Xrotation Yrotation
                      End Site
                      {
                        OFFSET 0.1475 -2.0882 0.0028
                      }
                    }
                  }
                }
                JOINT RightFinger3
                {
                  OFFSET -0.6113 -8.7231 -2.0637
                  CHANNELS 6 Xposition Yposition Zposition Zrotation Xrotation Yrotation
                  JOINT RightFinger31
                  {
                    OFFSET 0.1927 -3.8059 -0.2383
                    CHANNELS 6 Xposition Yposition Zposition Zrotation Xrotation Yrotation
                    JOINT RightFinger32
                    {
                      OFFSET 0.1091 -2.1688 -0.1362
                      CHANNELS 6 Xposition Yposition Zposition Zrotation Xrotation Yrotation
                      End Site
                      {
                        OFFSET 0.2358 -1.9176 -0.0906
                      }
                    }
                  }
                }
                JOINT RightFinger4
                {
                  OFFSET 0.6151 -8.0947 -3.564
                  CHANNELS 6 Xposition Yposition Zposition Zrotation Xrotation Yrotation
                  JOINT RightFinger41
                  {
                    OFFSET 0.4882 -2.341 -0.6462
                    CHANNELS 6 Xposition Yposition Zposition Zrotation Xrotation Yrotation
                    JOINT RightFinger42
                    {
                      OFFSET 0.3574 -1.7166 -0.4742
                      CHANNELS 6 Xposition Yposition Zposition Zrotation Xrotation Yrotation
                      End Site
                      {
                        OFFSET 0.4187 -1.5237 -0.3496
                      }
                    }
                  }
                }
                JOINT RightFinger0
                {
                  OFFSET 1.4199 -1.8761 1.4221
                  CHANNELS 6 Xposition Yposition Zposition Zrotation Xrotation Yrotation
                  JOINT RightFinger01
                  {
                    OFFSET 1.1472 -3.4929 2.6336
                    CHANNELS 6 Xposition Yposition Zposition Zrotation Xrotation Yrotation
                    JOINT RightFinger02
                    {
                      OFFSET 0.8229 -2.3 1.6571
                      CHANNELS 6 Xposition Yposition Zposition Zrotation Xrotation Yrotation
                      End Site
                      {
                        OFFSET 0.5822 -1.6914 1.1582
                      }
                    }
                  }
                }
              }
            }
          }
        }
      }
    }
  }
  JOINT RightHip
  {
    OFFSET -9.412 3.9771 -0.7758
    CHANNELS 6 Xposition Yposition Zposition Zrotation Xrotation Yrotation
    JOINT RightKnee
    {
      OFFSET -0.7531 -40.938 0
      CHANNELS 6 Xposition Yposition Zposition Zrotation Xrotation Yrotation
      JOINT RightAnkle
      {
        OFFSET 0 -40.1986 0
        CHANNELS 6 Xposition Yposition Zposition Zrotation Xrotation Yrotation
        JOINT RightToe
        {
          OFFSET 0 -4.4182 9.239
          CHANNELS 6 Xposition Yposition Zposition Zrotation Xrotation Yrotation
          End Site
          {
            OFFSET 0 0 6.1981
          }
        }
      }
    }
  }
  JOINT LeftHip
  {
    OFFSET 9.4119 3.9773 -0.7758
    CHANNELS 6 Xposition Yposition Zposition Zrotation Xrotation Yrotation
    JOINT LeftKnee
    {
      OFFSET 0.7532 -40.9383 0
      CHANNELS 6 Xposition Yposition Zposition Zrotation Xrotation Yrotation
      JOINT LeftAnkle
      {
        OFFSET 0 -40.1986 0
        CHANNELS 6 Xposition Yposition Zposition Zrotation Xrotation Yrotation
        JOINT LeftToe
        {
          OFFSET 0 -4.4182 9.239
          CHANNELS 6 Xposition Yposition Zposition Zrotation Xrotation Yrotation
          End Site
          {
            OFFSET 0 0 6.1981
          }
        }
      }
    }
  }
}
MOTION
Frames:	4
Frame Time:	0.0333333
39.8407 29.1462 38.356 1.29865e-007 67.7949 -1.10218e-007 7.10543e-015 8.7983 -4.7612 -0.403418 8.23267 -0.0515804 0 8.0291 0.4195 -0.812054 16.4656 -0.0445736 7.10543e-015 9.9351 -2.2114 -0.812056 16.4656 -0.0445736 0 22.3885 -0.4656 1.56585e-006 -0.423913 3.3929e-007 -0.0001 12.643 3.4389 -4.98503 -8.67354 -0.973134 2.2603 21.606 7.4023 -16.7913 2.74266 -4.22123 13.5163 -1.1332 -5.0146 155.949 -52.8166 42.7112 -0.0995 -28.05 -0.2431 3.36506 -15.2149 10.0322 0.0679 -23.3996 -0.1402 57.3377 -8.89716 5.57799 0.7932 -9.069 2.5189 3.52599e-007 -4.28732e-006 3.39072e-006 -0.8272 -3.3923 0.5977 -6.36111e-015 -7.95139e-016 7.95139e-016 -0.5649 -2.3158 0.4082 -3.18055e-015 -1.59028e-015 -3.97569e-016 0.9159 -9.2044 0.2193 3.52599e-007 -4.28732e-006 3.39072e-006 0.0117 -4.1944 -0.0248 -0.0127981 0.00231691 8.42021e-005 0.0071 -2.3249 -0.0142 3.18055e-015 -3.97569e-015 -1.39149e-015 0.6113 -8.7231 -2.0637 3.52599e-007 -4.28732e-006 3.39072e-006 -0.1927 -3.8059 -0.2383 -0.0160075 0.00298547 0.000849892 -0.1091 -2.1688 -0.1362 -6.36111e-015 -7.95139e-016 7.95139e-016 -0.6151 -8.0947 -3.5641 3.52599e-007 -4.28732e-006 3.39072e-006 -0.4882 -2.341 -0.6462 -0.0125961 0.00311113 0.00282038 -0.3575 -1.7167 -0.4742 6.36111e-015 -7.95139e-016 5.96354e-016 -1.42 -1.8761 1.4223 3.52599e-007 -4.28732e-006 3.39072e-006 -1.1471 -3.4929 2.6334 -6.36111e-015 -7.95139e-016 7.95139e-016 -0.823 -2.3 1.6571 -3.18055e-015 -1.59028e-015 -3.97569e-016 -2.2603 21.606 7.4023 15.4534 3.15004 -0.417427 -13.5187 -1.1334 -5.0155 -161.588 -52.8953 -50.8962 0.0994 -28.0499 -0.2431 -3.20338 -15.0472 -10.3175 -0.0679 -23.3996 -0.1402 -57.4459 -8.1892 -6.9171 -0.7932 -9.0691 2.5189 -6.36111e-015 3.18055e-015 7.95139e-016 0.8272 -3.3923 0.5977 -3.18055e-015 7.95139e-016 2.38542e-015 0.565 -2.3158 0.4082 -1.65521e-032 7.95139e-016 1.19271e-015 -0.916 -9.2044 0.2193 -6.36111e-015 3.18055e-015 7.95139e-016 -0.0117 -4.1944 -0.0248 0.0129658 0.00231974 -8.19027e-005 -0.0071 -2.3249 -0.0142 3.31043e-032 2.38542e-015 -7.95139e-016 -0.6113 -8.7231 -2.0637 -6.36111e-015 3.18055e-015 7.95139e-016 0.1927 -3.8059 -0.2383 0.0163991 0.00303873 -0.000868157 0.1091 -2.1688 -0.1362 3.18055e-015 0 1.19271e-015 0.6151 -8.0947 -3.564 -6.36111e-015 3.18055e-015 7.95139e-016 0.4882 -2.341 -0.6462 0.0145436 0.00365489 -0.00325333 0.3574 -1.7166 -0.4742 -3.18055e-015 7.95139e-016 1.19271e-015 1.4199 -1.8761 1.4221 -6.36111e-015 3.18055e-015 7.95139e-016 1.1472 -3.4929 2.6336 -3.18055e-015 7.95139e-016 2.38542e-015 0.8229 -2.3 1.6571 -1.65521e-032 7.95139e-016 1.19271e-015 -9.412 3.9771 -0.7758 -20.0264 -71.0624 -25.3059 -0.7531 -40.938 0 -168.692 76.234 168.069 3.55272e-015 -40.1986 2.66454e-015 -11.0865 45.1453 2.74496 3.55271e-015 -4.4182 9.239 9.6105e-007 -7.49502e-006 1.89417e-007 9.4119 3.9773 -0.7758 19.9051 -71.0881 25.0817 0.7532 -40.9383 0 169.096 76.2345 -168.441 0 -40.1986 -8.88179e-016 11.07 45.1327 -2.76971 -7.10543e-015 -4.4182 9.239 7.25884e-008 -2.26788e-009 4.69435e-007 
39.8407 29.1136 38.4104 4.00061e-007 67.595 -4.31765e-007 0 8.7983 -4.7612 -0.403929 8.36912 -0.04969 7.10543e-015 8.0291 0.4195 -0.813688 16.7384 -0.039632 0 9.9351 -2.2114 -0.813691 16.7385 -0.0396318 0 22.3885 -0.4656 3.43252e-006 0.614881 6.45508e-007 -0.0001 12.643 3.4389 -4.93612 -7.78927 -0.888693 2.2603 21.606 7.4023 -16.6287 2.40061 -4.45194 13.5163 -1.1332 -5.0146 155.949 -52.8166 42.7111 -0.0995 -28.05 -0.2431 3.36505 -15.2148 10.0322 0.0679 -23.3996 -0.1402 57.4594 -8.85216 5.63383 0.7932 -9.069 2.5189 -0 0 1.98785e-016 -0.8272 -3.3923 0.5977 -3.18055e-015 0 1.98785e-016 -0.5649 -2.3158 0.4082 -3.18055e-015 0 5.96354e-016 0.9159 -9.2044 0.2193 -0 0 1.98785e-016 0.0117 -4.1944 -0.0248 -0.0127819 0.00231557 7.77081e-005 0.0071 -2.3249 -0.0142 -3.18055e-015 -2.38542e-015 1.78906e-015 0.6113 -8.7231 -2.0637 -0 0 1.98785e-016 -0.1927 -3.8059 -0.2383 -0.0160613 0.00300029 0.000855836 -0.1091 -2.1688 -0.1362 -1.91195e-006 1.53405e-006 -3.26882e-006 -0.6151 -8.0947 -3.5641 -0 0 1.98785e-016 -0.4882 -2.341 -0.6462 -0.0126156 0.00312441 0.00282664 -0.3575 -1.7167 -0.4742 -6.36111e-015 -7.95139e-016 -5.96354e-016 -1.42 -1.8761 1.4223 -0 0 1.98785e-016 -1.1471 -3.4929 2.6334 -3.18055e-015 0 1.98785e-016 -0.823 -2.3 1.6571 -3.18055e-015 0 5.96354e-016 -2.2603 21.606 7.4023 15.3184 2.79668 -0.234566 -13.5187 -1.1334 -5.0155 -161.588 -52.8954 -50.8962 0.0994 -28.0499 -0.2431 -3.2034 -15.0472 -10.3175 -0.0679 -23.3996 -0.1402 -57.5618 -8.13746 -6.96392 -0.7932 -9.0691 2.5189 4.42755e-006 -5.1515e-006 -7.31754e-007 0.8272 -3.3923 0.5977 6.36111e-015 -1.59028e-015 -1.19271e-015 0.565 -2.3158 0.4082 7.81028e-007 -1.02021e-005 6.64715e-006 -0.916 -9.2044 0.2193 4.42755e-006 -5.1515e-006 -7.31754e-007 -0.0117 -4.1944 -0.0248 0.0130078 0.00233635 -8.50197e-005 -0.0071 -2.3249 -0.0142 -7.34371e-007 -1.50301e-005 1.00267e-005 -0.6113 -8.7231 -2.0637 4.42755e-006 -5.1515e-006 -7.31754e-007 0.1927 -3.8059 -0.2383 0.016305 0.00302217 -0.000855148 0.1091 -2.1688 -0.1362 -1.03599e-006 -5.88285e-006 -8.33455e-006 0.6151 -8.0947 -3.564 4.42755e-006 -5.1515e-006 -7.31754e-007 0.4882 -2.341 -0.6462 0.0146023 0.00367937 -0.00326437 0.3574 -1.7166 -0.4742 7.78057e-006 -5.01998e-006 1.24555e-005 1.4199 -1.8761 1.4221 4.42755e-006 -5.1515e-006 -7.31754e-007 1.1472 -3.4929 2.6336 6.36111e-015 -1.59028e-015 -1.19271e-015 0.8229 -2.3 1.6571 7.81028e-007 -1.02021e-005 6.64715e-006 -9.412 3.9771 -0.7758 -19.7717 -70.7965 -25.0447 -0.7531 -40.938 0 -168.693 76.2327 168.07 -3.55271e-015 -40.1986 -1.11022e-016 -11.0865 45.1456 2.74499 0 -4.4182 9.239 1.02439e-007 2.80501e-006 -5.92152e-007 9.4119 3.9773 -0.7758 19.6538 -70.8212 24.8243 0.7532 -40.9383 0 169.097 76.2332 -168.443 -7.10543e-015 -40.1986 0 11.0701 45.1329 -2.76972 0 -4.4182 9.239 -4.03382e-007 4.79261e-006 1.08482e-007 
39.8407 29.0811 38.4649 -1.77303e-007 67.395 2.53156e-007 0 8.7983 -4.7612 -0.404433 8.50546 -0.0477944 0 8.0291 0.4195 -0.815329 17.0111 -0.0346711 1.42109e-014 9.9351 -2.2114 -0.815331 17.0112 -0.0346712 0 22.3885 -0.4656 3.43998e-006 1.65322 1.25204e-006 -0.0001 12.643 3.4389 -4.88864 -6.90525 -0.80521 2.2603 21.606 7.4023 -16.4675 2.05798 -4.6816 13.5163 -1.1332 -5.0146 155.949 -52.8166 42.7112 -0.0995 -28.05 -0.2431 3.36492 -15.2148 10.0322 0.0679 -23.3996 -0.1402 57.5811 -8.80701 5.68949 0.7932 -9.069 2.5189 1.10348e-032 -7.95139e-016 7.95139e-016 -0.8272 -3.3923 0.5977 -3.31043e-032 -2.38542e-015 -7.95139e-016 -0.5649 -2.3158 0.4082 3.18055e-015 0 -1.59028e-015 0.9159 -9.2044 0.2193 1.10348e-032 -7.95139e-016 7.95139e-016 0.0117 -4.1944 -0.0248 -0.0127875 0.00231957 8.47984e-005 0.0071 -2.3249 -0.0142 -6.36111e-015 0 1.39149e-015 0.6113 -8.7231 -2.0637 1.10348e-032 -7.95139e-016 7.95139e-016 -0.1927 -3.8059 -0.2383 -0.0160361 0.00299191 0.000857638 -0.1091 -2.1688 -0.1362 0 0 -3.97569e-016 -0.6151 -8.0947 -3.5641 1.10348e-032 -7.95139e-016 7.95139e-016 -0.4882 -2.341 -0.6462 -0.0126297 0.0031363 0.00284521 -0.3575 -1.7167 -0.4742 0 3.18055e-015 -0 -1.42 -1.8761 1.4223 1.10348e-032 -7.95139e-016 7.95139e-016 -1.1471 -3.4929 2.6334 -3.31043e-032 -2.38542e-015 -7.95139e-016 -0.823 -2.3 1.6571 3.18055e-015 0 -1.59028e-015 -2.2603 21.606 7.4023 15.1846 2.44297 -0.052607 -13.5187 -1.1334 -5.0155 -161.588 -52.8953 -50.8963 0.0994 -28.0499 -0.2431 -3.20335 -15.0472 -10.3175 -0.0679 -23.3996 -0.1402 -57.6776 -8.08567 -7.01063 -0.7932 -9.0691 2.5189 -1.10348e-032 1.59028e-015 3.97569e-016 0.8272 -3.3923 0.5977 3.18055e-015 1.59028e-015 -3.97569e-016 0.565 -2.3158 0.4082 3.18055e-015 0 -0 -0.916 -9.2044 0.2193 -1.10348e-032 1.59028e-015 3.97569e-016 -0.0117 -4.1944 -0.0248 0.0129862 0.00231749 -7.68289e-005 -0.0071 -2.3249 -0.0142 9.37955e-032 1.35174e-014 -3.97569e-016 -0.6113 -8.7231 -2.0637 -1.10348e-032 1.59028e-015 3.97569e-016 0.1927 -3.8059 -0.2383 0.0163769 0.00304969 -0.000873384 0.1091 -2.1688 -0.1362 -3.18055e-015 -1.59028e-015 -0 0.6151 -8.0947 -3.564 -1.10348e-032 1.59028e-015 3.97569e-016 0.4882 -2.341 -0.6462 0.0146717 0.00370388 -0.00328414 0.3574 -1.7166 -0.4742 1.65521e-032 -7.95139e-016 1.19271e-015 1.4199 -1.8761 1.4221 -1.10348e-032 1.59028e-015 3.97569e-016 1.1472 -3.4929 2.6336 3.18055e-015 1.59028e-015 -3.97569e-016 0.8229 -2.3 1.6571 3.18055e-015 0 -0 -9.412 3.9771 -0.7758 -19.5188 -70.5288 -24.7857 -0.7531 -40.938 0 -168.692 76.2334 168.07 3.55271e-015 -40.1986 -8.88179e-016 -11.0866 45.1458 2.745 0 -4.4182 9.239 3.97569e-016 0 -7.95139e-016 9.4119 3.9773 -0.7758 19.4047 -70.5526 24.5694 0.7532 -40.9383 -7.10543e-015 169.096 76.2338 -168.442 -7.10543e-015 -40.1986 8.88179e-016 11.0701 45.1332 -2.76976 -7.10543e-015 -4.4182 9.239 6.50544e-007 7.54476e-006 1.96625e-006 
39.8407 29.0487 38.5194 6.93731e-008 67.1951 -6.03356e-008 0 8.7983 -4.7612 -0.40493 8.64177 -0.0458938 0 8.0291 0.4195 -0.816975 17.2837 -0.0296903 -7.10543e-015 9.9351 -2.2114 -0.816977 17.2837 -0.0296908 1.42109e-014 22.3885 -0.4656 2.65855e-006 2.6909 7.174e-007 -0.0001 12.643 3.4389 -4.84256 -6.02156 -0.722648 2.2603 21.606 7.4023 -16.3078 1.71477 -4.91023 13.5163 -1.1332 -5.0146 155.949 -52.8166 42.7112 -0.0995 -28.05 -0.2431 3.36502 -15.2148 10.0322 0.0679 -23.3996 -0.1402 57.7027 -8.76177 5.74511 0.7932 -9.06901 2.5189 5.51738e-033 7.95139e-016 -3.97569e-016 -0.8272 -3.3923 0.5977 0 0 -3.97569e-016 -0.5649 -2.3158 0.4082 3.18055e-015 7.95139e-016 -1.19271e-015 0.915899 -9.20441 0.2193 5.51738e-033 7.95139e-016 -3.97569e-016 0.0117 -4.1944 -0.0248 -0.0128693 0.00233932 8.60287e-005 0.0071 -2.3249 -0.0142 3.18055e-015 -7.95139e-016 3.97569e-016 0.6113 -8.7231 -2.0637 5.51738e-033 7.95139e-016 -3.97569e-016 -0.1927 -3.8059 -0.2383 -0.0160616 0.00300243 0.000856716 -0.1091 -2.1688 -0.1362 1.24141e-031 2.38542e-015 -2.98177e-015 -0.6151 -8.0947 -3.5641 5.51738e-033 7.95139e-016 -3.97569e-016 -0.4882 -2.341 -0.6462 -0.012547 0.00310479 0.00281308 -0.3575 -1.7167 -0.4742 3.86217e-032 -1.59028e-015 1.39149e-015 -1.42 -1.8761 1.4223 5.51738e-033 7.95139e-016 -3.97569e-016 -1.1471 -3.4929 2.6334 0 0 -3.97569e-016 -0.823 -2.3 1.6571 3.18055e-015 7.95139e-016 -1.19271e-015 -2.2603 21.606 7.4023 15.052 2.08891 0.128452 -13.5187 -1.1334 -5.0155 -161.588 -52.8953 -50.8963 0.0994 -28.0499 -0.2431 -3.20334 -15.0472 -10.3175 -0.0679 -23.3996 -0.1402 -57.7934 -8.03375 -7.0572 -0.7932 -9.0691 2.5189 9.96711e-007 -7.82909e-006 -6.71971e-006 0.8272 -3.3923 0.5977 4.18615e-006 -9.41494e-006 9.45684e-006 0.565 -2.3158 0.4082 3.62834e-006 -8.72716e-006 2.94894e-006 -0.916 -9.2044 0.2193 9.96711e-007 -7.82909e-006 -6.71971e-006 -0.0117 -4.1944 -0.0248 0.012964 0.0023165 -8.21455e-005 -0.0071 -2.3249 -0.0142 2.07041e-006 -8.81574e-006 -7.16868e-006 -0.6113 -8.7231 -2.0637 9.96711e-007 -7.82909e-006 -6.71971e-006 0.1927 -3.8059 -0.2383 0.0163171 0.00302222 -0.000868292 0.1091 -2.1688 -0.1362 -1.57463e-006 -2.52023e-006 -1.35588e-006 0.6151 -8.0947 -3.564 9.96711e-007 -7.82909e-006 -6.71971e-006 0.4882 -2.341 -0.6462 0.0146149 0.00367784 -0.00327051 0.3574 -1.7166 -0.4742 3.90461e-006 -9.97837e-006 -4.12647e-006 1.4199 -1.8761 1.4221 9.96711e-007 -7.82909e-006 -6.71971e-006 1.1472 -3.4929 2.6336 4.18615e-006 -9.41494e-006 9.45684e-006 0.8229 -2.3 1.6571 3.62834e-006 -8.72716e-006 2.94894e-006 -9.412 3.9771 -0.7758 -19.2784 -70.2623 -24.5387 -0.7531 -40.938 0 -168.693 76.2319 168.071 3.55271e-015 -40.1986 3.33067e-016 -11.0866 45.146 2.74502 3.55271e-015 -4.4182 9.239 -3.97569e-016 6.36111e-015 2.38542e-015 9.4119 3.9773 -0.7758 19.1687 -70.2853 24.3273 0.7532 -40.9383 7.10543e-015 169.097 76.232 -168.444 0 -40.1986 -1.77636e-015 11.0702 45.1334 -2.76974 0 -4.4182 9.239 -1.74691e-007 1.71212e-008 1.22137e-007 
